<svg width="146" height="146" viewBox="0 0 146 146" fill="none" xmlns="http://www.w3.org/2000/svg">
<path d="M7.92779 73.0686C8.12197 72.9314 8.15993 72.835 7.96575 72.6788C6.68387 71.6889 5.38155 70.6976 4.11865 69.6873C3.61495 69.2799 3.05139 68.9295 2.58419 68.4448H2.56521V77.1479H2.58419C2.74041 77.0121 2.91415 76.8763 3.07037 76.7405C4.67637 75.536 6.29551 74.2921 7.92779 73.0686Z" fill="#292525"/>
<path d="M144.115 58.5168C144.115 58.2248 144.057 58.1664 143.765 58.1664H2.23526C1.94326 58.1664 1.88486 58.2248 1.88486 58.5168V65.0868V81.5994V87.4832C1.88486 87.7752 1.94326 87.8336 2.23526 87.8336H143.746C144.038 87.8336 144.095 87.7752 144.095 87.4832C144.115 77.8078 144.115 68.1718 144.115 58.5168M143.435 86.7649C143.435 87.0758 143.357 87.1532 143.046 87.1532H2.95358C2.60464 87.1532 2.56522 87.0364 2.56522 86.7444V77.1873H2.54624V68.4827H2.56522V59.2555C2.56522 58.9446 2.6426 58.8657 2.95358 58.8657H143.046C143.357 58.8657 143.435 58.9241 143.435 59.2555V86.7649" fill="white"/>
<path d="M99.3924 60.6922C99.3924 60.187 99.3924 60.187 98.9062 60.187H5.07205C4.93597 60.1972 4.79932 60.1972 4.66325 60.187C4.45009 60.168 4.39169 60.2659 4.39169 60.46V67.8812C4.38406 67.9479 4.39439 68.0154 4.42159 68.0767C4.4488 68.1381 4.49191 68.1911 4.54645 68.2302C5.22681 68.7558 5.90717 69.2989 6.59045 69.823C7.88401 70.8333 9.18925 71.832 10.4916 72.835C10.1426 73.1066 9.83165 73.3781 9.50023 73.6307C7.90737 74.8352 6.29553 76.0397 4.70267 77.2442C4.50849 77.4004 4.37125 77.5552 4.39169 77.8472C4.41067 80.2168 4.41067 82.6068 4.39169 84.9778C4.39169 85.3457 4.46907 85.4625 4.87641 85.4625C36.2323 85.4431 67.5951 85.4431 98.9646 85.4625C99.334 85.4625 99.4114 85.3662 99.4114 85.0158C99.3924 76.9347 99.3924 68.8098 99.3924 60.6922M17.758 79.0123C17.0192 79.9262 16.006 80.3146 14.8818 80.373C14.4335 80.3953 13.9842 80.3693 13.5415 80.2956C12.4348 80.1394 11.3515 80.2752 10.239 80.3146H9.90903L9.71485 80.1204C9.70503 80.0637 9.71791 80.0055 9.75069 79.9582C9.78347 79.9109 9.83353 79.8785 9.89005 79.8678H9.92801C10.22 79.8488 10.531 79.9058 10.7252 79.6342C10.9573 79.3232 10.9777 78.9349 10.9777 78.5655C11.0157 77.6136 11.0352 76.6617 11.0361 75.7097V67.2009C11.0361 66.9483 11.0157 66.6767 10.9967 66.4241C10.9573 65.8606 10.7047 65.608 10.1426 65.5102L9.69441 65.4518C9.57907 65.4518 9.46227 65.4138 9.46227 65.278C9.46227 65.1423 9.57907 65.0634 9.71485 65.0634H10.9193C11.1515 65.0634 11.3661 65.0839 11.5997 65.0839H12.2786C13.2305 65.0839 14.2029 64.9671 15.1548 65.1218C17.0966 65.4138 17.7828 66.9483 17.6368 68.4054C17.539 69.5734 16.9959 70.5428 16.1607 71.3385C15.9461 71.5327 15.9082 71.6115 16.2177 71.7663C19.1902 73.3591 19.4049 76.9931 17.7536 79.0123M32.704 65.4722C31.9477 65.589 31.8105 65.7044 31.7725 66.4621C31.6367 68.4827 31.7331 70.4844 31.7141 72.505C31.7141 73.5927 31.7141 74.6804 31.5579 75.7681C31.39 76.8953 31.098 77.983 30.368 78.9159C29.2409 80.3336 27.7064 80.7029 25.9763 80.5088C23.471 80.2372 22.4212 78.5071 22.0139 76.5069C21.8485 75.6493 21.7702 74.7771 21.7803 73.9037V67.2198C21.7803 67.0257 21.7803 66.8125 21.7613 66.6183C21.7029 65.8212 21.4693 65.589 20.6736 65.4722C20.4984 65.4518 20.1874 65.5686 20.2268 65.2576C20.2663 64.9466 20.5378 65.0839 20.732 65.0839C22.0913 65.1028 23.452 65.1408 24.8112 65.0839L25.1412 65.1028L25.2974 65.297L25.1412 65.4722H25.1032C24.0725 65.7248 24.0535 65.7248 23.9951 66.7935C23.9571 67.5513 23.9571 68.2886 23.9761 69.0463C23.9951 71.2027 23.8783 73.3402 24.0535 75.4966C24.1119 76.3127 24.2477 77.1026 24.6375 77.8326C25.2011 78.8546 26.0362 79.4254 27.2407 79.386C28.4846 79.3276 29.2613 78.6487 29.7475 77.5596C30.1169 76.7244 30.1753 75.8076 30.1943 74.9184C30.2132 74.257 30.2132 73.5971 30.2132 72.9562V67.16C30.2164 66.9719 30.21 66.7838 30.1943 66.5964C30.1169 65.8401 29.9023 65.6065 29.1255 65.5087L28.9314 65.4897C28.7956 65.4897 28.6598 65.4503 28.6788 65.2766C28.6978 65.1028 28.8146 65.1014 28.9503 65.1014H29.0292C30.2337 65.1204 31.4572 65.1393 32.6617 65.1014C32.8164 65.1014 33.031 65.062 33.031 65.2956C33.05 65.4897 32.8369 65.4503 32.6996 65.4708M40.8406 79.3408C40.5694 79.6654 40.2359 79.9322 39.8597 80.1256C39.4835 80.319 39.0724 80.4349 38.6506 80.4664C37.6213 80.5832 36.6066 80.5248 35.6401 80.1554C35.0765 79.9233 35.0181 79.8459 35.0181 79.2429C35.0371 78.3669 35.0765 77.4909 35.0955 76.6149V76.504C35.1539 76.3872 35.0955 76.1536 35.3101 76.174C35.5247 76.1945 35.4459 76.3872 35.4459 76.504C35.4676 76.9127 35.5392 77.3172 35.659 77.7085C35.8243 78.2837 36.1937 78.7789 36.6978 79.1014C37.202 79.424 37.8065 79.5516 38.398 79.4605C39.4288 79.3247 40.1865 78.3348 40.2435 77.1099C40.3004 75.8849 39.7777 74.9929 38.8842 74.2746C38.1264 73.6526 37.3103 73.1066 36.6504 72.3897C35.3875 70.991 34.9991 69.3587 35.5043 67.5717C35.951 65.9978 37.3497 64.9437 38.982 64.8517C39.8035 64.8144 40.6258 64.9036 41.4202 65.116C41.6918 65.1934 41.7706 65.3306 41.7502 65.6022C41.7312 65.9715 41.7502 66.3599 41.7502 66.7293H41.7312C41.7312 67.176 41.7502 67.6228 41.7312 68.0696C41.7312 68.2053 41.7502 68.4185 41.537 68.4185C41.3238 68.4185 41.4012 68.2053 41.3822 68.0696C41.2844 67.1936 40.9734 66.4183 40.1193 66.0489C39.7486 65.8752 39.3371 65.8073 38.9302 65.8529C38.5234 65.8985 38.137 66.0558 37.814 66.3073C36.8227 67.0461 36.7453 68.6974 37.6592 69.7267C38.125 70.2508 38.7075 70.6596 39.2652 71.0669C40.315 71.8437 41.2859 72.6992 41.6932 73.9869C42.3546 75.9098 42.2188 77.7362 40.8391 79.3495M48.9991 80.3204C48.7071 80.3204 48.3961 80.3394 48.1055 80.3204C47.0967 80.243 46.0834 80.243 45.0746 80.3204C44.86 80.3394 44.6468 80.3204 44.4336 80.3204C44.2979 80.3204 44.1811 80.281 44.1606 80.1262C44.1402 79.9715 44.2584 79.8926 44.3942 79.8926C44.6862 79.8737 45.0162 79.9321 45.2104 79.6401C45.4045 79.3481 45.4235 78.9597 45.444 78.5918C45.5213 76.6938 45.5213 74.7841 45.5024 72.8978C45.4834 71.0115 45.5024 69.1281 45.4819 67.2447C45.4819 67.0111 45.4629 66.7775 45.444 66.5249C45.3856 65.7876 45.1914 65.5934 44.4716 65.4956C44.3168 65.4766 44.1022 65.5146 44.1022 65.2824C44.1022 65.0503 44.3358 65.0882 44.492 65.0882H48.5713C48.726 65.0882 48.9407 65.0488 48.9407 65.2824C48.9407 65.516 48.7465 65.4562 48.6107 65.4766C47.853 65.5934 47.7347 65.7292 47.6778 66.4665C47.6383 66.8753 47.6194 67.2636 47.6194 67.671V77.4968C47.6194 77.964 47.6588 78.4502 47.6778 78.9159C47.7157 79.5758 47.9698 79.8284 48.6297 79.8678H48.9596C49.1159 79.8678 49.329 79.8678 49.329 80.081C49.329 80.2941 49.1538 80.3146 48.9991 80.3146M64.1831 65.4518C63.2311 65.646 63.1932 65.6664 63.0954 66.6198C62.9786 67.8433 63.0574 69.0667 63.018 70.2917C62.9596 73.4 62.9216 76.4894 62.8822 79.5977V79.9656C62.8428 80.1598 62.8822 80.4328 62.6486 80.5102C62.415 80.5876 62.2413 80.4124 62.1055 80.2576C61.7741 79.8693 61.4441 79.4605 61.1331 79.0721C58.6278 75.9638 56.1209 72.8554 53.8331 69.5719L53.6784 69.3777C53.6784 70.6611 53.6579 71.9225 53.6784 73.1854C53.7163 74.8951 53.7747 76.6047 53.8141 78.3144C53.8162 78.5636 53.8486 78.8117 53.9105 79.0531C54.0463 79.6371 54.2609 79.8109 54.8829 79.8299L55.1354 79.8503C55.2508 79.8693 55.388 79.8883 55.388 80.0635C55.388 80.2387 55.2508 80.2766 55.096 80.2766C54.8624 80.2766 54.6493 80.2971 54.4157 80.2766C53.3864 80.1803 52.3717 80.2576 51.3497 80.2766C51.1934 80.2766 50.9613 80.3555 50.9409 80.0824C50.9204 79.8094 51.1745 79.8503 51.3497 79.8299C52.049 79.7919 52.2432 79.6357 52.2826 78.9539C52.4184 76.5843 52.3979 74.2147 52.4374 71.8247C52.4768 69.6683 52.4958 67.4929 52.5147 65.3364V65.1802C52.5542 65.0255 52.5542 64.7919 52.7483 64.7524C52.9425 64.713 53.0593 64.8897 53.1557 65.0255C54.1076 66.2884 55.0537 67.5513 56.0319 68.8127C57.9153 71.2421 59.8001 73.6891 61.6456 76.1565L61.7434 76.2733L61.8018 75.9039C61.7624 72.9518 61.704 69.9982 61.6456 67.0461C61.6394 66.7851 61.6135 66.525 61.5682 66.2679C61.4718 65.6839 61.1988 65.4912 60.4805 65.4328C60.3053 65.4138 60.0337 65.5102 60.0337 65.2386C60.0337 64.9671 60.3053 65.0444 60.4995 65.0444C61.6266 65.0634 62.7727 65.1028 63.8998 65.0444H64.1334L64.3466 65.2196C64.424 65.3934 64.3276 65.4328 64.1904 65.4518M74.6235 77.5362C74.6114 78.324 74.5402 79.1097 74.4104 79.8868C74.352 80.2372 74.1768 80.392 73.8074 80.392C72.8949 80.373 71.9809 80.392 71.0684 80.3146C69.7661 80.1978 68.4404 80.2562 67.1439 80.3336C67.0205 80.3367 66.897 80.3304 66.7746 80.3146L66.6198 80.1394L66.7556 79.9058L66.8724 79.8678C67.7659 79.6926 67.8827 79.5758 67.9017 78.6239C67.9406 77.5367 67.9601 76.449 67.9601 75.3608V67.2593C67.9601 66.9877 67.9411 66.7147 67.9207 66.4431C67.8827 65.8591 67.6287 65.608 67.0447 65.5306C66.8884 65.5102 66.7132 65.4912 66.5585 65.4722L66.3833 65.316L66.5395 65.1408C66.661 65.1188 66.784 65.1061 66.9074 65.1028C67.9572 65.1408 69.0054 65.1802 69.7442 65.1612H72.892C73.2686 65.1726 73.644 65.1132 73.9986 64.986C74.1928 64.9087 74.3096 64.9466 74.2717 65.1612C74.1344 66.0548 74.1549 66.9483 74.0381 67.8418C74.0191 67.9396 73.9986 68.0944 73.8439 68.0754C73.6891 68.0564 73.7461 67.9192 73.7271 67.8228C73.7302 67.6994 73.7239 67.5759 73.7081 67.4534C73.5723 66.6563 73.2613 66.4037 72.4642 66.3453C71.7648 66.3073 71.0655 66.2679 70.3662 66.2679C70.153 66.2679 70.0552 66.3263 70.0552 66.5599V71.3589C70.0552 71.5137 70.0552 71.6509 70.2683 71.6305C71.1633 71.6115 72.0758 71.6115 72.9693 71.5721C73.1149 71.5729 73.2584 71.5379 73.3872 71.4702C73.516 71.4024 73.6262 71.3041 73.7081 71.1837L73.9213 71.0275L74.0191 71.3005C73.9607 71.9415 73.9023 72.5634 73.8629 73.1985C73.8439 73.5285 73.8249 73.8774 73.8249 74.2089C73.8249 74.3257 73.7855 74.4614 73.6687 74.4614C73.5139 74.4614 73.5329 74.3052 73.5329 74.2089C73.4161 72.946 73.2803 72.8102 71.9984 72.7489C71.4539 72.7284 70.9297 72.7094 70.3924 72.67C70.1793 72.67 70.0815 72.7094 70.0815 72.962C70.0815 74.5169 70.0625 76.0893 70.1019 77.6442C70.1209 78.6546 70.5487 79.0823 71.578 79.1407C71.9853 79.1597 72.3751 79.1597 72.7825 79.1407C73.7344 79.0823 74.1417 78.6925 74.2979 77.761L74.3563 77.4311C74.3943 77.3143 74.3563 77.0997 74.5505 77.1391C74.6469 77.1975 74.6279 77.3917 74.6279 77.5274M82.9426 79.3349C82.6714 79.6595 82.3379 79.9264 81.9617 80.1198C81.5855 80.3131 81.1744 80.429 80.7526 80.4606C79.7242 80.5956 78.6784 80.4825 77.7027 80.1306C77.2939 79.9759 77.0807 79.7233 77.1187 79.2546C77.1771 78.3611 77.1771 77.4866 77.1975 76.593V76.4777C77.2544 76.3609 77.1975 76.1273 77.4107 76.1463C77.5859 76.1667 77.5464 76.3609 77.5464 76.4777C77.559 76.8874 77.6308 77.2931 77.7596 77.6822C78.1494 78.9057 79.2371 79.605 80.5 79.4342C81.5293 79.2984 82.2871 78.3071 82.3455 77.0836C82.4039 75.8601 81.8783 74.9666 80.9658 74.2468C80.208 73.6249 79.3919 73.0788 78.732 72.3634C77.488 71.0027 77.1187 69.4098 77.564 67.6418C77.9538 66.0489 79.4298 64.9028 81.0811 64.8254C81.8791 64.792 82.6777 64.8771 83.4507 65.078C83.7617 65.1554 83.8974 65.2912 83.8595 65.6211C83.8398 65.9834 83.8398 66.3465 83.8595 66.7088H83.8201C83.8201 67.1556 83.839 67.6024 83.8201 68.0491C83.8201 68.1659 83.8391 68.3995 83.6259 68.3995C83.4127 68.3995 83.4901 68.1864 83.4711 68.0491C83.3733 67.1731 83.0623 66.3979 82.2082 66.0299C81.836 65.852 81.4215 65.7815 81.0114 65.8264C80.6012 65.8713 80.2118 66.0298 79.8868 66.284C78.8969 67.0213 78.8181 68.6725 79.7321 69.7033C80.1978 70.2274 80.7803 70.6348 81.3381 71.0436C82.3878 71.8203 83.3587 72.6744 83.7675 73.9636C84.4464 75.9054 84.3106 77.7318 82.9309 79.3451M92.6253 79.3247C92.3532 79.6578 92.0169 79.9328 91.6364 80.1334C91.256 80.334 90.8391 80.4562 90.4105 80.4927C89.3833 80.6238 88.3397 80.5077 87.3664 80.154C86.9591 79.9992 86.7444 79.7466 86.7824 79.278C86.8408 78.3845 86.8408 77.5099 86.8802 76.6164L86.8992 76.4602C86.9576 76.3434 86.9182 76.1492 87.1124 76.1682C87.2686 76.1872 87.2481 76.3419 87.2481 76.4792C87.2617 76.9013 87.334 77.3194 87.4628 77.7216C87.8511 78.9451 88.9388 79.6459 90.2017 79.4736C91.2237 79.3378 91.9888 78.3465 92.0472 77.123C92.1056 75.8995 91.5814 75.0046 90.6675 74.2862C89.9097 73.6643 89.095 73.1182 88.4337 72.4014C87.1897 71.0421 86.8277 69.4493 87.2657 67.6812C87.654 66.0883 89.1301 64.9408 90.7813 64.8634C91.5812 64.8308 92.3816 64.9159 93.1568 65.116C93.4488 65.1934 93.6035 65.3306 93.5641 65.6606C93.5444 66.0229 93.5444 66.386 93.5641 66.7483H93.5247C93.5247 67.195 93.5451 67.6418 93.5247 68.0885C93.5247 68.2243 93.5451 68.4389 93.3305 68.4389C93.1159 68.4389 93.1947 68.2243 93.1757 68.0885C93.0779 67.2125 92.7669 66.4373 91.9128 66.0679C91.5451 65.8926 91.1357 65.8234 90.7308 65.868C90.3259 65.9127 89.9414 66.0693 89.6206 66.3205C88.6293 67.0592 88.5519 68.7105 89.4644 69.7398C89.9316 70.2639 90.5142 70.6727 91.0777 71.0801C92.126 71.8378 93.0779 72.6934 93.5057 73.9563C94.1277 75.8543 94.0109 77.6866 92.6297 79.3174" fill="#EA2127"/>
<path d="M141.784 60.1871H100.695C100.209 60.1871 100.209 60.1871 100.209 60.6733V84.9721C100.209 85.4568 100.209 85.4568 100.695 85.4568H141.802C142.289 85.4568 142.289 85.4568 142.289 84.9721V60.7127C142.308 60.1871 142.308 60.1871 141.784 60.1871M109.728 80.3921C108.427 80.5673 107.125 80.3921 105.843 80.2753C105.234 80.2373 104.624 80.2373 104.016 80.2753C103.686 80.2957 103.336 80.2957 103.006 80.3147C102.851 80.3147 102.695 80.3147 102.695 80.1015C102.695 79.8884 102.851 79.8869 102.987 79.8869C103.803 79.9059 103.918 79.557 103.977 78.7992C104.035 78.0415 104.056 77.3027 104.056 76.545V66.7542C104.016 65.8417 103.745 65.5497 102.851 65.4913L102.618 65.4723L102.423 65.2782C102.423 65.1614 102.52 65.103 102.618 65.084L102.948 65.0635C103.958 65.0446 104.968 65.1803 106.037 65.084C107.513 65.084 109.068 64.9862 110.583 65.2387C113.065 65.6665 114.682 67.1032 115.381 69.5122C116.217 72.311 115.984 75.031 114.429 77.5553C113.36 79.2854 111.69 80.1015 109.728 80.3921M128.883 80.2957C127.699 80.2957 126.513 80.3337 125.328 80.2373C125.211 80.2169 125.036 80.2957 124.979 80.1015C124.922 79.9074 125.096 79.9059 125.192 79.849C125.258 79.8119 125.308 79.7505 125.33 79.6777C125.351 79.605 125.344 79.5265 125.309 79.4591C124.902 78.0999 124.474 76.7406 124.065 75.3989C124.057 75.3663 124.043 75.3358 124.022 75.3091C124.002 75.2824 123.977 75.2602 123.948 75.2439C123.918 75.2276 123.886 75.2175 123.853 75.2143C123.819 75.211 123.786 75.2147 123.754 75.2251H120.238C120.084 75.2251 119.986 75.2441 119.927 75.4193C119.578 76.6034 119.111 77.7553 118.879 78.954C118.762 79.538 118.859 79.9643 119.609 79.8869C119.765 79.8679 119.959 79.8679 119.959 80.1205C119.959 80.3731 119.765 80.3337 119.609 80.3337C118.441 80.2373 117.258 80.2957 116.093 80.3337C115.937 80.3337 115.743 80.3541 115.743 80.1205C115.743 79.9263 115.899 79.8869 116.054 79.8869C116.772 79.9263 117.2 79.5175 117.434 78.897C117.822 77.8473 118.171 76.7786 118.54 75.7303C119.708 72.2716 120.891 68.8333 122.057 65.3745C122.135 65.1409 122.174 64.8314 122.465 64.811C122.795 64.792 122.834 65.1409 122.912 65.3745C124.291 69.4348 125.651 73.4761 127.03 77.5363C127.208 78.1209 127.456 78.6818 127.769 79.2066C128.041 79.6548 128.391 79.9074 128.937 79.8869C129.093 79.8869 129.306 79.8679 129.287 80.1015C129.229 80.3147 129.035 80.2957 128.879 80.2957M139.284 65.4723C138.991 65.5049 138.71 65.6086 138.466 65.7745C138.223 65.9405 138.023 66.1635 137.885 66.4243C136.837 68.1339 136.021 69.9399 135.165 71.7474C134.835 72.4263 134.466 73.1067 134.408 73.8834C134.389 74.1944 134.37 74.5054 134.37 74.8163C134.389 76.1771 134.311 77.5363 134.428 78.897C134.486 79.5964 134.739 79.8285 135.45 79.8679C135.599 79.8648 135.748 79.8711 135.897 79.8869C136.033 79.9059 136.149 79.9643 136.149 80.1205C136.138 80.1817 136.103 80.2361 136.053 80.2723C136.002 80.3085 135.939 80.3237 135.878 80.3147C135.469 80.3147 135.081 80.3337 134.673 80.2957C133.546 80.1789 132.419 80.2957 131.292 80.3147H131L130.806 80.1205L130.98 79.9059L131.194 79.8869C131.816 79.849 132.048 79.6548 132.088 79.0328C132.185 77.3816 132.242 75.7303 132.107 74.098C132.051 73.5851 131.892 73.0886 131.641 72.638C130.747 70.851 129.854 69.0435 128.94 67.2565C128.757 66.8887 128.542 66.5375 128.299 66.2067C128.172 66.0185 128.009 65.8579 127.819 65.7344C127.629 65.611 127.416 65.5273 127.192 65.4884C127.056 65.4694 126.919 65.449 126.94 65.2752C126.96 65.1015 127.094 65.0811 127.251 65.0811C128.533 65.119 129.795 65.119 131.077 65.0811C131.194 65.0811 131.349 65.0811 131.369 65.2358C131.39 65.3906 131.253 65.449 131.136 65.4694C130.806 65.5468 130.747 65.7804 130.844 66.0709L130.942 66.3629C131.854 68.3631 132.748 70.3458 133.699 72.4234C134.536 70.3254 135.597 68.461 136.265 66.4009C136.44 65.8388 136.382 65.741 135.856 65.449L135.72 65.2168L135.914 65.0811H136.031C137.119 65.138 138.208 65.119 139.296 65.0811C139.431 65.0811 139.567 65.0811 139.588 65.2358C139.569 65.411 139.433 65.449 139.277 65.4694" fill="#292525"/>
<path d="M64.1889 65.0838H63.9568C62.8296 65.1408 61.6835 65.1028 60.5564 65.0838C60.3812 65.0838 60.1097 65.0254 60.0907 65.278C60.0717 65.5306 60.3622 65.4518 60.5374 65.4722C61.2558 65.5306 61.5273 65.7248 61.6251 66.3073C61.6704 66.5639 61.6963 66.8236 61.7025 67.084C61.7609 70.0376 61.8193 72.9897 61.8587 75.9243L61.8003 76.2923L61.7025 76.1769C59.8571 73.7095 57.9722 71.2611 56.0888 68.8331C55.1165 67.5892 54.1645 66.3073 53.2126 65.0444C53.1163 64.9086 52.9995 64.7334 52.8053 64.7729C52.6111 64.8123 52.6111 65.0444 52.5717 65.1992V65.3554C52.5527 67.5118 52.5337 69.6872 52.4943 71.8436C52.4549 74.2147 52.4943 76.5843 52.3381 78.9743C52.3001 79.6546 52.1059 79.8284 51.4066 79.8678C51.2314 79.8678 50.9788 79.8284 50.9978 80.1204C51.0168 80.4124 51.2504 80.3146 51.4066 80.3146C52.4286 80.2956 53.4506 80.2167 54.4726 80.3146C54.6872 80.3335 54.9194 80.3146 55.153 80.3146C55.3077 80.3146 55.445 80.2751 55.445 80.1014C55.445 79.9277 55.3092 79.9058 55.1938 79.8868L54.9413 79.8678C54.3383 79.8284 54.1047 79.6546 53.9689 79.0911C53.907 78.8496 53.8746 78.6016 53.8725 78.3523C53.8141 76.6427 53.7557 74.933 53.7368 73.2233C53.7163 71.9604 53.7368 70.6786 53.7368 69.4157L53.8915 69.6098C56.1837 72.8744 58.6905 75.9827 61.1915 79.1101C61.5025 79.5174 61.8325 79.9058 62.1639 80.2956C62.2997 80.4503 62.4734 80.6255 62.707 80.5482C62.9406 80.4708 62.9216 80.1978 62.9406 80.0036C62.9501 79.8806 62.9501 79.7571 62.9406 79.6342C62.9786 76.5259 63.018 73.4365 63.0764 70.3282C63.0954 69.1047 63.018 67.8812 63.1348 66.6563C63.2311 65.7043 63.2706 65.7043 64.2225 65.4883C64.3393 65.4693 64.4356 65.4109 64.4356 65.2751L64.1889 65.0838Z" fill="white"/>
<path d="M16.206 71.7852C15.914 71.6305 15.9344 71.5531 16.1476 71.3589C16.9827 70.5618 17.5273 69.5909 17.6251 68.4243C17.7405 66.9643 17.0805 65.4328 15.1431 65.1408C14.1912 65.005 13.2203 65.1218 12.2684 65.1028H11.5793C11.3471 65.1028 11.1325 65.0838 10.8989 65.0838H9.69439C9.55861 65.0838 9.44181 65.1408 9.44181 65.297C9.44181 65.4532 9.55861 65.4722 9.67541 65.4722C9.82548 65.4815 9.97475 65.501 10.1222 65.5306C10.6857 65.608 10.9193 65.8795 10.9777 66.4431C10.9967 66.6957 11.0157 66.9672 11.0157 67.2198C11.0157 70.0566 11.0361 72.8934 11.0157 75.7302C11.0157 76.6821 10.9777 77.6282 10.9573 78.5859C10.9383 78.9538 10.9383 79.3437 10.7047 79.6546C10.5105 79.9262 10.1996 79.8678 9.90901 79.8868H9.86959C9.75279 79.9262 9.67541 79.9846 9.69439 80.1394L9.89003 80.3335H10.22C11.3267 80.3146 12.41 80.1583 13.5035 80.3146C13.9472 80.3789 14.3957 80.4048 14.8438 80.3919C15.9899 80.3146 16.9798 79.9262 17.7186 79.0327C19.4092 76.9887 19.1946 73.3591 16.2031 71.7852M13.5035 65.992C14.2029 65.9146 14.8175 66.1088 15.1928 66.7103C15.9899 67.9936 16.1257 69.3529 15.4453 70.7326C15.0964 71.4319 13.9109 71.7809 13.2115 71.4509C13.0363 71.3735 13.0758 71.2377 13.0758 71.102V68.7353C13.0758 67.9776 13.0947 67.2008 13.0758 66.4431C13.0758 66.1321 13.2115 66.0358 13.5035 65.9963M16.3389 78.3713C15.7549 79.6152 14.3576 79.5962 13.5649 79.1101C13.4554 79.04 13.3635 78.9458 13.2962 78.8347C13.2289 78.7236 13.1879 78.5985 13.1765 78.4691C13.1116 78.0711 13.0857 77.6677 13.0991 77.2646V72.7956C13.0991 72.4846 13.1969 72.4262 13.4875 72.4072C14.5372 72.3298 15.2745 72.816 15.8381 73.6511C16.4411 74.5446 16.6747 75.5155 16.7316 76.5259C16.6747 77.2062 16.6163 77.8077 16.3432 78.3713" fill="white"/>
<path d="M32.6777 65.0839C31.4732 65.1218 30.2497 65.1028 29.0452 65.0839H28.9679C28.8306 65.0839 28.6948 65.1028 28.6948 65.278C28.6948 65.4532 28.8116 65.4722 28.9474 65.4722L29.1416 65.4912C29.9198 65.589 30.1329 65.8211 30.2103 66.5789C30.2273 66.7662 30.2342 66.9544 30.2308 67.1425V72.9314C30.2308 73.5927 30.2308 74.2526 30.2103 74.8936C30.1913 75.7886 30.1329 76.7011 29.7636 77.5362C29.2978 78.6239 28.5007 79.3043 27.2582 79.3627C26.0537 79.4211 25.2142 78.8385 24.655 77.8077C24.2652 77.0894 24.1294 76.2923 24.071 75.4717C23.9163 73.3153 24.0331 71.1779 23.9936 69.0215C23.9936 68.2637 23.9747 67.525 24.0331 66.7672C24.0915 65.6985 24.1104 65.6985 25.1397 65.4459H25.1792L25.3339 65.2722L25.1792 65.097L24.8492 65.078C23.4885 65.1349 22.1292 65.097 20.7685 65.078C20.5933 65.078 20.3028 64.9612 20.2633 65.2518C20.2239 65.5423 20.5553 65.4459 20.7101 65.4664C21.5073 65.5832 21.7409 65.8153 21.7978 66.6125C21.8148 66.8125 21.8216 67.0133 21.8182 67.214V73.8979C21.8068 74.772 21.8831 75.6451 22.046 76.504C22.4548 78.5042 23.4841 80.2343 26.0099 80.5058C27.7385 80.7 29.254 80.3306 30.4001 78.913C31.1389 77.999 31.4104 76.9113 31.5856 75.7652C31.7404 74.6775 31.7404 73.5898 31.7404 72.5021C31.7608 70.4815 31.6835 68.4798 31.7988 66.4592C31.8382 65.7014 31.974 65.5832 32.7317 65.4693C32.8675 65.4489 33.0821 65.4883 33.0821 65.2751C33.0237 65.0415 32.8296 65.0605 32.6733 65.0809" fill="white"/>
<path d="M74.4863 77.1872C74.2921 77.1477 74.3315 77.3609 74.2921 77.4792L74.2337 77.8091C74.0789 78.7421 73.6701 79.1304 72.7182 79.1888C72.3109 79.2078 71.9211 79.2078 71.5137 79.1888C70.5034 79.1304 70.0537 78.7026 70.0377 77.6938C70.0172 76.1389 70.0377 74.565 70.0172 73.0116C70.0172 72.759 70.134 72.7196 70.3282 72.7196C70.8728 72.7385 71.3969 72.778 71.9415 72.7969C73.2044 72.8364 73.3592 72.9721 73.476 74.2569C73.476 74.3737 73.457 74.5095 73.6117 74.5095C73.7665 74.5095 73.768 74.3548 73.768 74.2569C73.7869 73.927 73.7869 73.578 73.8059 73.2466C73.8453 72.6057 73.9037 71.9837 73.9621 71.3486L73.8643 71.0771L73.6512 71.2318C73.5694 71.3523 73.4592 71.4509 73.3304 71.5189C73.2016 71.5869 73.0581 71.6221 72.9124 71.6216C72.0189 71.6596 71.1064 71.6596 70.2129 71.6786C70.0172 71.6786 69.9982 71.5428 69.9982 71.407V66.5978C69.9982 66.3656 70.0756 66.3058 70.3092 66.3058C71.0086 66.3058 71.7079 66.3437 72.4072 66.3832C73.2234 66.4416 73.5154 66.6941 73.6512 67.4913C73.6669 67.6133 73.6733 67.7363 73.6701 67.8592C73.6701 67.957 73.6512 68.0928 73.7869 68.1118C73.9227 68.1308 73.9621 67.976 73.9811 67.8797C74.0979 66.9861 74.0585 66.0926 74.2147 65.1976C74.2527 64.9845 74.1359 64.9451 73.9417 65.0239C73.5869 65.1506 73.2115 65.2095 72.835 65.1976H69.6873C68.95 65.2181 67.9002 65.1787 66.8505 65.1392C66.727 65.143 66.604 65.1562 66.4826 65.1787L66.3263 65.3539L66.5015 65.5086C66.6563 65.5291 66.8315 65.548 66.9877 65.567C67.5717 65.6648 67.8228 65.897 67.8637 66.481C67.8842 66.7525 67.9031 67.0241 67.9031 67.2971C67.9031 69.9967 67.9221 72.6991 67.9221 75.3972C67.9221 76.4864 67.8842 77.5741 67.8637 78.6618C67.8447 79.6137 67.7279 79.7305 66.8344 79.9042L66.7176 79.9247L66.576 80.1539L66.7322 80.3291C66.8541 80.3461 66.9772 80.3529 67.1001 80.3495C68.4214 80.2707 69.7281 80.2123 71.0246 80.3291C71.9386 80.4065 72.8511 80.3875 73.765 80.4065C74.133 80.4065 74.3082 80.2517 74.3666 79.9013C74.5057 79.1254 74.577 78.3389 74.5797 77.5507C74.6191 77.3959 74.6381 77.2018 74.4834 77.1828" fill="white"/>
<path d="M91.0573 71.0669C90.4952 70.6596 89.9112 70.2508 89.4513 69.7266C88.5388 68.6973 88.5972 67.0461 89.606 66.3073C89.9304 66.0553 90.3183 65.8983 90.7266 65.8537C91.1349 65.8091 91.5476 65.8787 91.9187 66.0547C92.7728 66.4241 93.0867 67.2008 93.1816 68.0754C93.2006 68.2111 93.1232 68.4243 93.3363 68.4243C93.5495 68.4243 93.5115 68.2111 93.5305 68.0754C93.551 67.6286 93.5305 67.1818 93.5305 66.7351H93.57C93.57 66.3657 93.551 66.0153 93.57 65.6459C93.6094 65.316 93.4721 65.1802 93.1626 65.1028C92.389 64.9026 91.59 64.8175 90.7916 64.8502C89.1213 64.9276 87.6643 66.0737 87.2759 67.6666C86.8291 69.4346 87.1971 71.0246 88.4439 72.3882C89.1053 73.1065 89.92 73.6701 90.6777 74.2731C91.5917 75.0031 92.1158 75.9039 92.0574 77.1084C91.999 78.3129 91.2413 79.3232 90.212 79.459C89.6197 79.5567 89.0122 79.4318 88.5065 79.1083C88.0008 78.7848 87.6326 78.2857 87.473 77.707C87.3442 77.3043 87.272 76.8856 87.2584 76.4631C87.2584 76.3463 87.2788 76.1711 87.1226 76.1521C86.9284 76.1331 86.9474 76.3273 86.9094 76.4441L86.8905 76.5988C86.87 77.4924 86.851 78.3669 86.7926 79.2604C86.7532 79.7276 86.9678 79.9802 87.3766 80.1364C88.368 80.5058 89.3973 80.5642 90.4266 80.4664C90.8576 80.4282 91.277 80.3054 91.6605 80.105C92.0441 79.9046 92.3843 79.6305 92.6618 79.2984C94.0211 77.6661 94.1569 75.8396 93.497 73.9168C93.0502 72.6729 92.0983 71.8188 91.0675 71.0611" fill="white"/>
<path d="M81.3629 71.0669C80.8008 70.6596 80.2168 70.2508 79.7569 69.7266C78.8444 68.6973 78.9218 67.0461 79.9117 66.3073C80.236 66.0553 80.6239 65.8983 81.0322 65.8537C81.4405 65.8091 81.8532 65.8787 82.2243 66.0547C83.0784 66.4241 83.3923 67.2008 83.4872 68.0754C83.5062 68.2111 83.4288 68.4243 83.642 68.4243C83.8551 68.4243 83.8171 68.1922 83.8361 68.0754C83.8566 67.6286 83.8361 67.1818 83.8361 66.7351H83.8755C83.8755 66.3657 83.8566 66.0153 83.8755 65.6459C83.915 65.316 83.7792 65.1802 83.4682 65.1028C82.6946 64.9026 81.8956 64.8175 81.0972 64.8502C79.4269 64.9276 77.9698 66.0547 77.5815 67.6666C77.1347 69.4346 77.5231 71.0246 78.7495 72.3882C79.4109 73.1065 80.2255 73.6511 80.9833 74.2731C81.8972 75.0031 82.4214 75.9039 82.363 77.1084C82.3046 78.3129 81.5468 79.3232 80.5175 79.459C79.9252 79.5567 79.3177 79.4318 78.8121 79.1083C78.3064 78.7848 77.9382 78.2857 77.7786 77.707C77.6561 77.3164 77.5811 76.9125 77.5552 76.5039C77.5552 76.3682 77.5946 76.193 77.4194 76.174C77.2063 76.1535 77.2442 76.3871 77.2063 76.5039V76.6207C77.1873 77.5143 77.1669 78.3888 77.1289 79.2823C77.0895 79.7481 77.3026 80.0006 77.7129 80.1583C78.7028 80.5277 79.7335 80.5861 80.7628 80.4897C81.6113 80.4121 82.3965 80.008 82.9528 79.3626C84.3311 77.7493 84.4683 75.9243 83.8288 74C83.3821 72.6992 82.4302 71.8436 81.3614 71.0669" fill="white"/>
<path d="M39.2638 71.0669C38.7002 70.6595 38.1177 70.2507 37.6578 69.7266C36.7438 68.6973 36.8212 67.046 37.8125 66.3073C38.1369 66.0553 38.5248 65.8983 38.9331 65.8537C39.3414 65.8091 39.7541 65.8787 40.1252 66.0547C40.9793 66.4241 41.2932 67.2008 41.3881 68.0753C41.4071 68.2111 41.3297 68.4243 41.5428 68.4243C41.756 68.4243 41.718 68.1921 41.737 68.0753C41.756 67.6286 41.737 67.1818 41.737 66.7351H41.7764C41.7764 66.3657 41.756 65.9773 41.7764 65.6079C41.7876 65.5542 41.7878 65.4987 41.7771 65.4449C41.7664 65.391 41.7449 65.3398 41.714 65.2945C41.683 65.2491 41.6433 65.2104 41.5971 65.1807C41.5509 65.1511 41.4991 65.131 41.445 65.1218C40.6502 64.8956 39.8231 64.8038 38.9981 64.8502C38.2057 64.8791 37.4427 65.1577 36.8181 65.6462C36.1935 66.1347 35.7393 66.8081 35.5203 67.5702C35.0152 69.3762 35.4035 70.9895 36.6664 72.3882C37.3264 73.1255 38.1425 73.6511 38.9002 74.273C39.8142 75.003 40.3383 75.9039 40.261 77.1084C40.1836 78.3129 39.4448 79.3232 38.4155 79.459C37.823 79.5567 37.2153 79.4318 36.7094 79.1084C36.2035 78.7849 35.8351 78.2858 35.6751 77.707C35.556 77.3155 35.4844 76.9111 35.4619 76.5025C35.4619 76.3667 35.5014 76.1915 35.3072 76.1725C35.113 76.1535 35.151 76.3857 35.0926 76.5025V76.6193C35.0736 77.4953 35.0342 78.3713 35.0152 79.2473C34.9962 79.8502 35.0546 79.9466 35.6371 80.1598C36.608 80.5496 37.6184 80.5875 38.6477 80.4707C39.4963 80.3947 40.2819 79.9909 40.8377 79.3451C42.2174 77.7318 42.3531 75.9053 41.7137 73.9635C41.2859 72.7006 40.334 71.8261 39.2652 71.0683" fill="white"/>
<path d="M48.9771 79.862H48.6472C47.9873 79.8226 47.7347 79.57 47.6953 78.9101C47.6573 78.4444 47.6369 77.9582 47.6369 77.491V67.6666C47.6369 67.2593 47.6573 66.8709 47.6953 66.4621C47.7537 65.7044 47.8705 65.5861 48.6282 65.4723C48.764 65.4518 48.9771 65.4912 48.9582 65.2781C48.9392 65.0649 48.745 65.0839 48.5888 65.0839H44.5095C44.3533 65.0839 44.1402 65.0635 44.1212 65.2781C44.1022 65.4927 44.3343 65.4723 44.4906 65.4912C45.2089 65.5891 45.4031 65.8022 45.4615 66.5205C45.4804 66.7541 45.5009 66.9877 45.5009 67.2403C45.5009 69.1237 45.5199 71.0086 45.5199 72.8934C45.5199 74.7783 45.5388 76.7011 45.4615 78.5874C45.4425 78.9554 45.4425 79.3174 45.2279 79.6357C45.0132 79.954 44.7037 79.8693 44.4117 79.8883C44.2759 79.9073 44.1591 79.9657 44.1796 80.1219C44.2 80.2781 44.3154 80.3161 44.4511 80.3161C44.6643 80.3161 44.8789 80.3351 45.0921 80.3161C46.1009 80.2387 47.1142 80.2387 48.123 80.3161C48.415 80.3351 48.7246 80.3161 49.0166 80.3161C49.1918 80.3161 49.367 80.3351 49.367 80.1029C49.367 79.8708 49.1523 79.8693 48.9771 79.8693" fill="white"/>
<path d="M115.381 69.5121C114.682 67.1235 113.07 65.6665 110.583 65.2387C109.047 64.9861 107.517 65.0839 106.037 65.0839C104.968 65.1803 103.958 65.0445 102.948 65.0635L102.618 65.0839C102.52 65.1029 102.423 65.1409 102.423 65.2577L102.618 65.4518L102.851 65.4723C103.764 65.5497 104.035 65.8417 104.056 66.7352V76.526C104.056 77.2837 104.035 78.0225 103.977 78.7802C103.918 79.5379 103.803 79.8869 102.987 79.8679C102.851 79.8679 102.695 79.9059 102.695 80.0811C102.695 80.2957 102.851 80.3146 103.006 80.2957C103.336 80.2957 103.686 80.2752 104.016 80.2563C104.624 80.2168 105.235 80.2168 105.843 80.2563C107.144 80.3541 108.427 80.5483 109.728 80.3731C111.69 80.1015 113.36 79.2854 114.429 77.5363C115.984 75.0309 116.197 72.3109 115.381 69.5063M112.899 76.7537C112.258 78.424 110.918 79.2591 109.15 79.3817C108.551 79.4443 107.945 79.3983 107.363 79.2459C106.605 79.0123 106.352 78.6619 106.294 77.8662C106.177 76.0208 106.235 74.1754 106.235 73.165V66.8681C106.235 66.2841 106.332 66.1687 106.916 66.1103C109.849 65.8577 112.277 67.2958 113.074 70.0932C113.715 72.346 113.734 74.5798 112.899 76.7566" fill="#FCFDFF"/>
<path d="M128.883 79.8621C128.359 79.8811 127.989 79.6285 127.715 79.1817C127.41 78.653 127.162 78.093 126.976 77.5115C125.598 73.4512 124.237 69.41 122.858 65.3497C122.78 65.1161 122.742 64.7657 122.411 64.7861C122.119 64.8051 122.081 65.1161 122.003 65.3497C120.835 68.807 119.653 72.2467 118.486 75.704C118.118 76.7727 117.768 77.8225 117.38 78.8708C117.146 79.4927 116.739 79.8928 116 79.8621C115.845 79.8431 115.689 79.8811 115.689 80.0957C115.689 80.3103 115.883 80.3089 116.039 80.3089C117.207 80.2694 118.39 80.211 119.555 80.3089C119.711 80.3278 119.905 80.3483 119.905 80.0957C119.905 79.8431 119.711 79.8621 119.555 79.8621C118.797 79.9205 118.701 79.5117 118.825 78.9292C119.078 77.7247 119.543 76.5786 119.873 75.393C119.932 75.2193 120.03 75.1989 120.184 75.1989H123.701C123.856 75.1989 123.973 75.2193 124.011 75.3741C124.42 76.7348 124.848 78.094 125.255 79.4343C125.283 79.5026 125.286 79.5785 125.265 79.6491C125.244 79.7198 125.199 79.7811 125.138 79.8227C125.042 79.8811 124.885 79.9205 124.925 80.0753C124.963 80.2694 125.138 80.211 125.274 80.211C126.459 80.3089 127.645 80.2694 128.829 80.2694C128.985 80.2694 129.179 80.2899 129.198 80.0563C129.257 79.8431 129.063 79.8621 128.887 79.8621M123.059 74.0732H120.592C120.476 74.0732 120.3 74.1301 120.378 73.8776C120.923 72.1883 121.447 70.5196 122.011 68.7106C122.516 70.3809 123.002 71.9547 123.487 73.5286C123.643 74.0732 123.643 74.0732 123.059 74.0732" fill="#FCFDFF"/>
<path d="M139.258 65.0839C138.17 65.1219 137.082 65.1409 135.995 65.0839H135.878L135.684 65.2197L135.819 65.4518C136.344 65.7438 136.421 65.8417 136.227 66.4038C135.567 68.4638 134.498 70.3282 133.663 72.4263C132.711 70.3487 131.797 68.347 130.904 66.3658L130.807 66.0738C130.709 65.7818 130.768 65.5686 131.099 65.4723C131.216 65.4329 131.352 65.3934 131.333 65.2387C131.314 65.0839 131.178 65.0635 131.041 65.0839C129.759 65.1219 128.496 65.1219 127.214 65.0839C127.078 65.0839 126.922 65.0839 126.903 65.2781C126.903 65.4329 127.039 65.4518 127.156 65.4913C127.379 65.5311 127.592 65.6152 127.782 65.7386C127.973 65.8619 128.136 66.0221 128.264 66.2096C128.514 66.5362 128.728 66.888 128.905 67.2593C129.798 69.0464 130.711 70.8334 131.604 72.6409C131.847 73.0953 132.005 73.59 132.072 74.1009C132.191 75.7439 132.184 77.3937 132.051 79.0357C132.013 79.6766 131.78 79.8518 131.158 79.8898L130.944 79.9088L130.769 80.1234L130.962 80.3146H131.254C132.381 80.2956 133.507 80.1978 134.634 80.2956C135.022 80.3336 135.431 80.3146 135.838 80.3146C135.9 80.3236 135.963 80.3084 136.013 80.2722C136.064 80.236 136.099 80.1816 136.11 80.1205C136.13 79.9642 135.995 79.9058 135.857 79.8868C135.709 79.871 135.56 79.8647 135.411 79.8679C134.692 79.8284 134.459 79.6153 134.381 78.897C134.264 77.5363 134.343 76.177 134.323 74.8163C134.323 74.5053 134.343 74.1943 134.362 73.8833C134.44 73.1066 134.809 72.4233 135.12 71.7474C135.974 69.9399 136.79 68.1339 137.84 66.4242C137.986 66.17 138.188 65.9522 138.43 65.7874C138.672 65.6225 138.949 65.5147 139.239 65.4723C139.393 65.4518 139.531 65.4139 139.51 65.2387C139.55 65.0635 139.393 65.0635 139.258 65.0839" fill="#FCFDFF"/>
<path d="M13.4641 72.4262C13.1721 72.4467 13.0758 72.5051 13.0758 72.8161C13.0947 74.3111 13.0758 75.7872 13.0758 77.2837C13.0629 77.6867 13.0888 78.0901 13.1531 78.4882C13.2115 78.7597 13.3079 78.9933 13.5415 79.1291C14.3387 79.6153 15.7315 79.6343 16.3155 78.3918C16.5871 77.8282 16.6659 77.2238 16.6849 76.5653C16.6632 75.5417 16.3535 74.5449 15.7914 73.6891C15.2468 72.835 14.5095 72.3489 13.4554 72.4262" fill="#EA2127"/>
<path d="M13.0947 68.7558V71.1254C13.0947 71.2612 13.0568 71.397 13.2305 71.4744C13.9298 71.8058 15.1154 71.4554 15.4658 70.756C16.1257 69.3763 16.0089 68.0171 15.2132 66.7352C14.8438 66.1322 14.2218 65.938 13.5225 66.0154C13.2115 66.0548 13.0947 66.1512 13.0947 66.4826C13.1137 67.2199 13.0947 67.9981 13.0947 68.7558" fill="#EA2127"/>
<path d="M106.911 66.1381C106.327 66.1965 106.231 66.3133 106.231 66.8958V73.1899C106.25 74.1812 106.173 76.0456 106.289 77.8925C106.327 78.6882 106.6 79.0386 107.358 79.2708C107.942 79.4649 108.542 79.446 109.145 79.408C110.913 79.2912 112.254 78.4561 112.895 76.78C113.73 74.6046 113.711 72.3504 113.07 70.1355C112.274 67.3177 109.845 65.8796 106.911 66.1381Z" fill="#292525"/>
<path d="M122.006 68.7163C121.443 70.5033 120.919 72.194 120.374 73.8832C120.297 74.1563 120.472 74.0789 120.587 74.0789H123.055C123.639 74.0789 123.639 74.0789 123.463 73.5343C122.998 71.9604 122.511 70.3865 122.003 68.7163" fill="#292525"/>
</svg>
