<svg width="117" height="40" viewBox="0 0 117 40" fill="none" xmlns="http://www.w3.org/2000/svg">
<g clip-path="url(#clip0_1_237)">
<path d="M112.184 39.8781C108.692 37.9655 105.117 36.5518 101.459 35.3045C93.7268 32.893 85.8286 32.2278 77.8471 32.7267C70.5306 33.2256 63.3804 34.8056 56.3965 36.7182C49.4127 38.5476 42.2628 39.6286 35.1128 39.3792C26.7156 39.2128 18.734 37.3003 11.7502 32.4772C7.26068 29.4005 3.68562 25.409 1.19141 20.586C0.858846 20.0039 0.692561 19.3386 0.360001 18.6734C0.775703 18.5071 0.775703 18.8397 0.858846 19.006C6.09672 26.4069 13.413 30.5646 22.226 32.3941C29.2929 33.8077 36.3599 33.4751 43.427 32.3109C48.3321 31.4794 53.1542 29.9826 58.0596 28.8184C65.7914 27.0721 73.6066 26.2406 81.5052 26.9889C92.7291 28.07 102.872 31.8952 111.685 39.2128C111.852 39.3792 112.018 39.5455 112.184 39.7118C112.184 39.6286 112.184 39.7118 112.184 39.8781Z" fill="#0054B4"/>
<path d="M71.196 23.1637C73.607 21.4174 74.5213 19.1722 73.8564 16.3449C73.191 13.5176 70.6969 11.7714 67.7039 11.7714C65.0435 11.8545 62.7988 13.8503 62.2168 16.6775C61.6348 19.4217 63.0481 22.249 65.5421 23.4963C65.7914 23.6626 66.0412 23.6626 66.3735 23.8289C65.8748 24.1615 65.2928 24.0784 64.7938 24.1615C62.8818 24.4942 60.9693 24.7436 59.0574 25.2426C58.5583 25.4089 58.3919 25.1594 58.1426 24.8268C52.9878 17.5091 57.3113 7.53043 66.0412 6.11677C72.443 5.1189 78.1794 8.8609 79.7591 14.8481C80.5075 17.5091 80.2582 20.2532 79.1771 22.8311C79.0112 23.2469 78.8448 23.4132 78.3458 23.4132C76.3504 23.33 74.355 23.4132 72.443 23.4132C71.9439 23.33 71.5283 23.6626 71.196 23.1637Z" fill="#FE0000"/>
<path d="M24.1382 5.86731C25.7179 5.86731 26.965 5.86731 28.2121 5.86731C28.7109 5.86731 28.9604 5.95046 28.8772 6.53254C28.7109 9.77561 26.5493 11.7714 23.3068 11.7714C22.7248 11.7714 22.1428 11.7714 21.5608 11.7714C18.2352 11.7714 15.4916 14.4323 15.4916 17.8417C15.4916 21.2511 18.1521 23.9121 21.5608 23.9121C22.3923 23.9121 23.3068 23.9121 24.0551 23.9121C26.7156 24.0784 28.9603 26.5731 28.7941 29.3172C28.7109 29.8993 28.2952 29.733 28.1289 29.6498C25.9673 29.4835 23.8056 29.234 21.644 28.8182C18.5678 28.153 15.4916 27.072 12.5817 25.7415C12.0828 25.5752 11.7502 25.2425 11.5008 24.8268C6.26299 17.7585 10.8357 7.19778 19.5655 6.03361C21.2283 5.86731 22.8079 5.95046 24.1382 5.86731Z" fill="#FE0000"/>
<path d="M101.376 29.0678C98.3825 27.6541 95.3065 26.4068 92.1471 25.4921C89.4867 24.7437 86.9093 24.1616 84.1655 23.829C83.6669 23.7458 83.4176 23.5795 83.2512 23.1637C82.5029 21.7501 82.0872 20.2533 82.0872 18.6733C82.0038 12.7693 82.0872 6.78208 82.0038 0.794858C82.0038 0.295925 82.1702 0.212769 82.6692 0.212769C85.8286 0.37908 88.1563 2.62428 88.1563 5.78421C88.1563 9.69251 88.1563 13.6008 88.1563 17.5091C88.1563 21.2511 90.7337 23.829 94.4752 23.829C95.5558 23.829 96.6369 23.6627 97.7175 23.9953C99.8793 24.7437 101.376 26.7394 101.376 29.0678Z" fill="#FE0000"/>
<path d="M106.115 19.5048C106.115 19.2553 106.115 19.0059 106.115 18.6733C106.032 17.3428 106.614 16.4281 107.694 15.846C108.775 15.2639 109.939 15.347 110.937 16.1786C111.27 16.4281 111.436 16.3449 111.768 16.0954C112.766 15.3471 113.847 15.2639 114.928 15.846C116.009 16.4281 116.59 17.4259 116.59 18.6733C116.59 19.4217 116.59 20.0869 116.59 20.8353C116.59 21.4174 116.341 21.4174 115.925 21.2511C115.343 21.0016 115.094 20.5859 115.094 19.9206C115.094 19.4217 115.094 18.9228 115.094 18.507C115.094 17.5922 114.512 17.0102 113.681 16.927C112.849 16.8439 112.184 17.5091 112.184 18.4238C112.101 19.2553 112.184 20.0869 112.184 20.8353C112.184 21.3342 112.018 21.3342 111.602 21.2511C111.02 21.0848 110.688 20.669 110.688 20.0038C110.688 19.4217 110.688 18.8396 110.605 18.2575C110.521 17.4259 109.856 16.8439 109.191 16.8439C108.359 16.8439 107.777 17.4259 107.777 18.2575C107.777 18.7565 107.777 19.2553 107.777 19.6711C107.777 20.1701 107.611 20.5027 107.279 20.8353C107.029 21.0016 106.78 21.2511 106.447 21.1679C106.032 21.0016 106.281 20.669 106.281 20.4196C106.115 20.2532 106.115 19.8375 106.115 19.5048Z" fill="#0054B4"/>
<path d="M101.043 19.5049C101.043 19.0891 101.043 18.7564 101.043 18.4238C101.126 16.8439 102.29 15.6797 103.787 15.5134C104.202 15.5134 104.618 15.4302 104.951 15.5134C105.2 15.5134 105.616 15.3471 105.699 15.6797C105.782 16.0123 105.616 16.2618 105.366 16.5112C105.034 16.8439 104.618 16.8439 104.286 16.927C102.955 17.0102 102.54 17.426 102.457 18.8396C102.457 19.3386 102.457 19.6712 102.457 20.1701C102.457 20.5859 102.29 20.9185 101.958 21.168C101.708 21.3343 101.376 21.5838 101.126 21.4174C100.877 21.2511 100.96 20.9185 100.96 20.669C101.043 20.2532 101.043 19.8375 101.043 19.5049Z" fill="#0054B4"/>
<path d="M104.535 17.7586C104.701 17.7586 104.784 17.7586 105.034 17.7586C105.283 17.8417 105.782 17.5923 105.865 17.9249C105.948 18.2575 105.699 18.6733 105.366 18.9228C104.701 19.3386 103.953 19.2554 103.288 19.0891C102.955 19.0059 102.955 18.6733 102.955 18.3407C103.039 18.008 103.205 17.8417 103.537 17.8417C103.87 17.6754 104.203 17.7586 104.535 17.7586Z" fill="#0054B4"/>
<path d="M71.1956 23.1637C71.6117 23.4963 72.0273 23.1637 72.443 23.33C71.9439 23.4963 71.3619 23.4131 70.6969 23.4963C70.8633 23.2468 70.9462 23.1637 71.1956 23.1637Z" fill="#FE0000"/>
<path fill-rule="evenodd" clip-rule="evenodd" d="M49.1634 27.571C52.3228 25.0763 54.0689 21.9165 54.0689 17.2597C54.0689 11.9378 49.5791 6.86527 43.51 6.11688C37.5239 5.28531 31.704 9.11046 30.2075 14.9314C28.711 20.9186 31.7872 26.9889 37.607 29.2341C38.3552 29.4836 38.9372 29.6499 39.7686 29.4836C42.6786 29.0678 45.5883 28.5689 48.4155 27.9037C48.7477 27.8205 48.9971 27.7374 49.1634 27.571ZM41.9303 23.9953C45.256 23.9953 47.9164 21.2512 47.9164 17.925C47.9164 14.5156 45.256 11.8546 42.0134 11.7714C38.6878 11.7714 36.0273 14.5156 36.0273 17.925C36.0273 21.3343 38.6047 23.9953 41.9303 23.9953Z" fill="#FE0000"/>
</g>
<defs>
<clipPath id="clip0_1_237">
<rect width="117" height="40" fill="white"/>
</clipPath>
</defs>
</svg>
