<svg width="86" height="86" viewBox="0 0 86 86" fill="none" xmlns="http://www.w3.org/2000/svg">
<g clip-path="url(#clip0_1_248)">
<path d="M84.3054 75.5467V75.7187H84.4657C84.4958 75.7192 84.5255 75.7116 84.5517 75.6967C84.5622 75.6894 84.5706 75.6795 84.5763 75.668C84.5819 75.6565 84.5845 75.6437 84.584 75.631C84.5845 75.6184 84.5819 75.6059 84.5762 75.5947C84.5706 75.5835 84.5621 75.5739 84.5517 75.5669C84.5258 75.5513 84.4959 75.5437 84.4657 75.545H84.3054V75.5467ZM84.4675 75.425C84.5362 75.4208 84.6043 75.4405 84.6601 75.4809C84.6825 75.4992 84.7002 75.5225 84.712 75.549C84.7237 75.5754 84.729 75.6042 84.7276 75.6331C84.7286 75.658 84.7243 75.6828 84.715 75.7058C84.7056 75.7289 84.6915 75.7497 84.6734 75.7668C84.6304 75.8043 84.5764 75.8267 84.5195 75.8309L84.7345 76.076H84.5689L84.3711 75.8326H84.3071V76.076H84.1686V75.4254H84.4696L84.4675 75.425ZM84.4245 76.3005C84.4971 76.3012 84.569 76.2865 84.6356 76.2575C84.6998 76.2298 84.7581 76.1903 84.8076 76.1409C84.8571 76.0916 84.8967 76.0332 84.9241 75.9689C84.9805 75.8326 84.9805 75.6795 84.9241 75.5432C84.8963 75.4792 84.8568 75.4208 84.8076 75.3712C84.7581 75.3219 84.6998 75.2824 84.6356 75.2547C84.5686 75.2273 84.4968 75.2135 84.4245 75.2143C84.3508 75.2136 84.2778 75.2273 84.2095 75.2547C84.1439 75.2818 84.0841 75.3214 84.0336 75.3712C83.9575 75.4493 83.9061 75.5479 83.8857 75.655C83.8653 75.762 83.8768 75.8727 83.9188 75.9732C83.945 76.0378 83.984 76.0963 84.0336 76.1452C84.0842 76.195 84.1439 76.2346 84.2095 76.2618C84.2774 76.2908 84.3506 76.3054 84.4245 76.3048M84.4245 75.0578C84.6134 75.0576 84.7949 75.1317 84.9297 75.2642C84.9947 75.3278 85.0464 75.4036 85.0819 75.4873C85.1187 75.5733 85.1376 75.6658 85.1376 75.7593C85.1376 75.8528 85.1187 75.9453 85.0819 76.0313C85.0456 76.1145 84.994 76.1902 84.9297 76.2545C84.8637 76.3177 84.787 76.3687 84.7031 76.405C84.615 76.4424 84.5202 76.4614 84.4245 76.4609C84.3276 76.4616 84.2316 76.4425 84.1424 76.405C84.0575 76.3695 83.9801 76.3185 83.914 76.2545C83.8498 76.1879 83.7989 76.1097 83.764 76.024C83.7272 75.938 83.7083 75.8455 83.7083 75.752C83.7083 75.6585 83.7272 75.566 83.764 75.48C83.7995 75.3963 83.8512 75.3205 83.9162 75.2569C83.9813 75.1917 84.059 75.1405 84.1445 75.1064C84.2338 75.0688 84.3298 75.0498 84.4266 75.0505M18.5829 72.5453C18.5829 71.3047 19.3956 70.2856 20.7238 70.2856C21.9932 70.2856 22.8498 71.2609 22.8498 72.5453C22.8498 73.8297 21.9932 74.8049 20.7238 74.8049C19.3956 74.8049 18.5829 73.7858 18.5829 72.5453M24.2967 72.5453V69.015H22.762V69.875C22.2753 69.2394 21.537 68.8408 20.5329 68.8408C18.5549 68.8408 17.0026 70.3923 17.0026 72.547C17.0026 74.7017 18.5541 76.2532 20.5329 76.2532C21.5365 76.2532 22.2753 75.8541 22.762 75.219V76.076H24.295V72.5453H24.2967ZM76.1513 72.5453C76.1513 71.3047 76.964 70.2856 78.2927 70.2856C79.5633 70.2856 80.4186 71.2609 80.4186 72.5453C80.4186 73.8297 79.5633 74.8049 78.2927 74.8049C76.9644 74.8049 76.1513 73.7858 76.1513 72.5453ZM81.8668 72.5453V66.1813H80.3309V69.875C79.8441 69.2394 79.1058 68.8408 78.1017 68.8408C76.1237 68.8408 74.5714 70.3923 74.5714 72.547C74.5714 74.7017 76.1229 76.2532 78.1017 76.2532C79.1058 76.2532 79.8441 75.8541 80.3309 75.219V76.076H81.8668V72.5453ZM43.344 70.213C44.333 70.213 44.9681 70.833 45.1302 71.9248H41.4683C41.6322 70.9057 42.2509 70.213 43.3444 70.213M43.3749 68.837C41.3066 68.837 39.8597 70.342 39.8597 72.5431C39.8597 74.7873 41.3647 76.2493 43.4777 76.2493C44.5407 76.2493 45.5142 75.984 46.3708 75.2603L45.6187 74.1229C45.027 74.5959 44.2736 74.8613 43.5654 74.8613C42.5764 74.8613 41.676 74.4033 41.4546 73.1327H46.695C46.71 72.9417 46.7255 72.7491 46.7255 72.5427C46.71 70.3424 45.3495 68.8365 43.3741 68.8365M61.9028 72.5427C61.9028 71.3021 62.7155 70.283 64.0438 70.283C65.3131 70.283 66.1697 71.2583 66.1697 72.5427C66.1697 73.8271 65.3131 74.8023 64.0438 74.8023C62.7155 74.8023 61.9024 73.7832 61.9024 72.5427M67.6162 72.5427V69.015H66.0824V69.875C65.5939 69.2394 64.8573 68.8408 63.8533 68.8408C61.8753 68.8408 60.323 70.3923 60.323 72.547C60.323 74.7017 61.8744 76.2532 63.8533 76.2532C64.8573 76.2532 65.5939 75.8541 66.0824 75.219V76.076H67.6166V72.5453L67.6162 72.5427ZM53.2361 72.5427C53.2361 74.6837 54.7265 76.2489 57.0012 76.2489C58.0642 76.2489 58.7724 76.0124 59.5382 75.4074L58.8012 74.1668C58.225 74.5809 57.62 74.8023 56.9522 74.8023C55.7271 74.7873 54.8263 73.9015 54.8263 72.5427C54.8263 71.1839 55.7271 70.2985 56.9522 70.283C57.6183 70.283 58.2233 70.5045 58.8012 70.9186L59.5382 69.678C58.7711 69.073 58.0629 68.8365 57.0012 68.8365C54.7265 68.8365 53.2361 70.4013 53.2361 72.5427M73.0204 68.8365C72.1351 68.8365 71.5584 69.2506 71.1598 69.8707V69.015H69.6389V76.0721H71.1753V72.1161C71.1753 70.9483 71.6771 70.2994 72.6803 70.2994C73.0088 70.2946 73.335 70.355 73.6401 70.477L74.1131 69.0305C73.7734 68.8967 73.3305 68.8378 73.0196 68.8378M31.8841 69.5761C31.1457 69.0894 30.1284 68.8378 29.0061 68.8378C27.2181 68.8378 26.067 69.6948 26.067 71.097C26.067 72.2477 26.924 72.9576 28.5021 73.1791L29.2271 73.2823C30.0686 73.4005 30.4659 73.622 30.4659 74.0206C30.4659 74.5663 29.9069 74.8776 28.8573 74.8776C27.7943 74.8776 27.0272 74.5379 26.5099 74.1393L25.7888 75.336C26.6303 75.956 27.6933 76.2519 28.8444 76.2519C30.8826 76.2519 32.0638 75.2921 32.0638 73.9484C32.0638 72.7078 31.1341 72.0589 29.5982 71.8375L28.8749 71.7326C28.2106 71.6466 27.6782 71.5128 27.6782 71.0398C27.6782 70.5238 28.18 70.2134 29.022 70.2134C29.9228 70.2134 30.7949 70.5531 31.2223 70.8184L31.8866 69.5778L31.8841 69.5761ZM51.686 68.8391C50.8006 68.8391 50.224 69.2532 49.8271 69.8733V69.015H48.3062V76.0721H49.8409V72.1161C49.8409 70.9483 50.3427 70.2994 51.3459 70.2994C51.6744 70.2946 52.0006 70.355 52.3056 70.477L52.7786 69.0305C52.4389 68.8967 51.996 68.8378 51.6851 68.8378M38.5899 69.015H36.0804V66.874H34.529V69.015H33.0975V70.4176H34.529V73.637C34.529 75.2745 35.1645 76.2497 36.98 76.2497C37.6461 76.2497 38.4132 76.0433 38.8999 75.7041L38.4566 74.39C37.9987 74.6553 37.4968 74.789 37.0978 74.789C36.3307 74.789 36.0804 74.316 36.0804 73.6078V70.4189H38.5899V69.015ZM15.6455 76.0739V71.6449C15.6455 69.9769 14.5826 68.8546 12.869 68.8395C11.9682 68.8245 11.0389 69.1048 10.3884 70.0951C9.90159 69.3125 9.13447 68.8395 8.05603 68.8395C7.30224 68.8395 6.56565 69.061 5.98902 69.8874V69.015H4.45306V76.0721H6.00106V72.1591C6.00106 70.9341 6.68046 70.283 7.72966 70.283C8.74876 70.283 9.26433 70.9474 9.26433 72.1437V76.0713H10.8158V72.1583C10.8158 70.9332 11.524 70.2822 12.5427 70.2822C13.5906 70.2822 14.0907 70.9465 14.0907 72.1428V76.0704L15.6455 76.0739Z" fill="#231F20"/>
<path d="M85.1804 52.5984V51.5664H84.9117L84.6008 52.2746L84.2916 51.5664H84.022V52.5984H84.2129V51.821L84.5036 52.4918H84.7014L84.9921 51.8192V52.5984H85.1813H85.1804ZM83.4755 52.5984V51.7431H83.8195V51.569H82.9406V51.7431H83.2846V52.5984H83.4738H83.4755Z" fill="#F79410"/>
<path d="M54.6345 57.0244H31.3775V15.2284H54.6349L54.6345 57.0244Z" fill="#FF5F00"/>
<path d="M32.852 36.1274C32.852 27.649 36.8218 20.0965 43.0034 15.2294C38.3242 11.5397 32.5368 9.53724 26.5779 9.54605C11.899 9.54605 0 21.4467 0 36.1274C0 50.808 11.899 62.7087 26.5779 62.7087C32.5369 62.7176 38.3245 60.7151 43.0039 57.0254C36.8226 52.1591 32.852 44.6061 32.852 36.1274Z" fill="#EB001B"/>
<path d="M86.0108 36.1274C86.0108 50.808 74.1118 62.7087 59.4329 62.7087C53.4732 62.7174 47.685 60.715 43.0048 57.0254C49.1882 52.1582 53.1579 44.6061 53.1579 36.1274C53.1579 27.6486 49.1882 20.0965 43.0048 15.2294C47.6849 11.5398 53.473 9.5374 59.4325 9.54605C74.1114 9.54605 86.0103 21.4467 86.0103 36.1274" fill="#F79E1B"/>
</g>
<defs>
<clipPath id="clip0_1_248">
<rect width="86" height="86" fill="white"/>
</clipPath>
</defs>
</svg>
